#define 02b3fe9b950345ebc57438a93ebd42edxbYES6xR4oB16Gpd_width 16
#define 02b3fe9b950345ebc57438a93ebd42edxbYES6xR4oB16Gpd_height 16
static char 02b3fe9b950345ebc57438a93ebd42edxbYES6xR4oB16Gpd_bits[] = {
  0x00, 0x00, 0x00, 0x00, 0x80, 0x00, 0x80, 0x00, 0xC0, 0x01, 0x20, 0x02, 
  0xB8, 0x0E, 0x20, 0x02, 0xC0, 0x01, 0x80, 0x00, 0x80, 0x00, 0x00, 0x00, 
  0x00, 0x00, 0x00, 0x00, 0x00, 0x00, 0x00, 0x00, };
